<svg xmlns="http://www.w3.org/2000/svg" width="228" height="80" fill="none" viewBox="0 0 228 80"><g fill="#202020"><path d="M77.103 41.334h-6.991V48.7h-3.32V30.527h3.32v7.613h6.991v-7.613h3.32v18.172h-3.32zm13.942 1.49A2.75 2.75 0 0 1 88.3 45.57a2.75 2.75 0 0 1-2.745-2.746v-7.783H82.41v7.783a5.895 5.895 0 0 0 5.89 5.889 5.895 5.895 0 0 0 5.888-5.889v-7.783h-3.143zm23.328-6.981c0-1.596 1.056-2.102 2.212-2.102.931 0 2.163.71 2.967 1.57l2.062-2.43c-1.031-1.392-3.118-2.354-4.828-2.354-3.42 0-5.885 2-5.885 5.317 0 6.151 7.52 4.201 7.52 7.645 0 1.062-1.031 1.999-2.212 1.999-1.861 0-2.466-.911-3.32-1.873l-2.289 2.379c1.46 1.797 3.27 2.71 5.433 2.71 3.244 0 5.86-2.026 5.86-5.191 0-6.835-7.52-4.708-7.52-7.67m46.519 9.953c-1.86 0-2.388-.805-2.388-2.038v-5.457h2.892v-2.765h-2.892v-3.647l-3.193 1.434v11.116c0 2.842 1.961 4.275 4.65 4.275.403 0 .956-.025 1.259-.1l.78-2.867c-.352.024-.754.05-1.108.05zm-57.864-10.663c-1.559 0-2.647.452-3.699 1.484v-5.981h-3.154v11.086c0 4.149 3 6.991 6.372 6.991 3.747 0 7.03-2.892 7.03-6.79 0-3.897-3.027-6.79-6.549-6.79m-.02 10.407a3.577 3.577 0 1 1 0-7.154 3.577 3.577 0 0 1 0 7.154m34.259-3.78c0-3.898-3.283-6.79-7.03-6.79-3.371 0-6.371 2.842-6.371 6.991v11.086h3.154v-5.982c1.051 1.032 2.139 1.484 3.698 1.484 3.522 0 6.549-2.942 6.549-6.79m-2.991-.04a3.577 3.577 0 1 1-7.154 0 3.577 3.577 0 0 1 7.154 0"/><path d="M147.458 34.817V31.65a2.44 2.44 0 0 0 1.407-2.198v-.074a2.444 2.444 0 0 0-2.436-2.435h-.073a2.443 2.443 0 0 0-2.436 2.435v.074c0 .971.579 1.807 1.406 2.198v3.168a6.9 6.9 0 0 0-3.284 1.445l-8.698-6.766a2.8 2.8 0 0 0 .098-.686 2.75 2.75 0 0 0-5.497-.006 2.75 2.75 0 0 0 2.745 2.75c.494 0 .952-.139 1.353-.367l8.556 6.656a6.9 6.9 0 0 0-1.154 3.83c0 1.416.469 2.854 1.26 3.982l-2.601 2.602a2.3 2.3 0 0 0-.646-.104 2.257 2.257 0 1 0 2.258 2.257c0-.226-.043-.44-.105-.645l2.574-2.574a6.9 6.9 0 0 0 4.207 1.428 6.946 6.946 0 0 0 6.946-6.946c0-3.473-2.551-6.342-5.88-6.856m-1.067 10.417a3.561 3.561 0 1 1 0-7.123 3.561 3.561 0 0 1 0 7.123"/></g></svg>