<svg xmlns="http://www.w3.org/2000/svg" width="228" height="80" fill="none" viewBox="0 0 228 80"><path fill="#202020" d="M81.674 36.074v7.865h1.961a3.74 3.74 0 0 0 2.667-1.174A3.94 3.94 0 0 0 87.377 40a3.87 3.87 0 0 0-1.06-2.777 3.68 3.68 0 0 0-2.682-1.15zm1.961-2.466c3.655 0 6.42 2.832 6.42 6.392s-2.765 6.408-6.42 6.408H79.31a.313.313 0 0 1-.31-.318V33.939c0-.176.14-.319.31-.319zm15.841 10.605c1.66.005 3.159-1.016 3.798-2.587a4.28 4.28 0 0 0-.878-4.587 4.03 4.03 0 0 0-4.47-.922c-1.534.648-2.536 2.181-2.539 3.883 0 2.32 1.827 4.202 4.09 4.213m.001-10.895c3.847 0 6.788 3.032 6.788 6.682s-2.941 6.682-6.789 6.682-6.763-3.017-6.763-6.682 2.942-6.682 6.764-6.682m16.133 10.895c2.263-.006 4.094-1.89 4.092-4.21-.003-2.322-1.838-4.202-4.1-4.203-2.264 0-4.1 1.879-4.103 4.2 0 1.118.433 2.19 1.204 2.98a4.05 4.05 0 0 0 2.907 1.233m-.001-10.895c3.835 0 6.776 3.017 6.776 6.682s-2.953 6.682-6.776 6.682-6.788-3.017-6.788-6.682 2.941-6.682 6.788-6.682m15.746 2.756h-2.765v3.385h2.765a1.6 1.6 0 0 0 1.188-.453c.32-.31.502-.74.506-1.192a1.695 1.695 0 0 0-1.035-1.62 1.6 1.6 0 0 0-.659-.117zm-5.44-2.135c0-.176.14-.319.311-.319h5.206c2.482 0 4.278 1.865 4.278 4.207.019 1.584-.846 3.039-2.227 3.748l2.401 4.353a.33.33 0 0 1 .012.34.31.31 0 0 1-.294.156h-2.107a.31.31 0 0 1-.282-.172l-2.314-4.308h-2.319v4.136a.31.31 0 0 1-.19.294.3.3 0 0 1-.12.025h-2.03a.313.313 0 0 1-.31-.319zm16.767 2.195V44h1.96a3.75 3.75 0 0 0 2.668-1.17 3.94 3.94 0 0 0 1.077-2.763 3.88 3.88 0 0 0-1.057-2.782 3.67 3.67 0 0 0-2.687-1.15zm1.96-2.469c3.655 0 6.42 2.835 6.42 6.402s-2.765 6.402-6.42 6.402h-4.312a.313.313 0 0 1-.31-.319V34c0-.177.139-.32.31-.32zm14.576 3.128-1.517 4.206h3.031zm-2.407 6.583-.993 2.8a.31.31 0 0 1-.31.22h-2.154a.31.31 0 0 1-.283-.134.33.33 0 0 1-.027-.318l4.654-12.139a.31.31 0 0 1 .31-.21h2.41a.31.31 0 0 1 .311.21l4.654 12.139a.33.33 0 0 1-.028.318.3.3 0 0 1-.283.133h-2.153a.31.31 0 0 1-.31-.22l-.993-2.8zm11.069-6.31c0-2.01 1.694-3.748 4.369-3.748a5.46 5.46 0 0 1 3.88 1.499.33.33 0 0 1 .075.361.3.3 0 0 1-.075.107l-1.193 1.215a.307.307 0 0 1-.44 0 3.1 3.1 0 0 0-2.07-.837c-1.07 0-1.861.637-1.861 1.372 0 2.376 6.323 1.005 6.323 5.577-.003 2.317-1.71 4.07-4.728 4.07a6.25 6.25 0 0 1-4.511-1.858.3.3 0 0 1-.074-.107.3.3 0 0 1 0-.254.3.3 0 0 1 .074-.107l1.154-1.184a.31.31 0 0 1 .45 0 3.93 3.93 0 0 0 2.727 1.14c1.337 0 2.218-.732 2.218-1.649 0-2.377-6.32-1.005-6.32-5.578m20.476-3.162v4.804h-5.352v-4.804a.31.31 0 0 0-.19-.293.3.3 0 0 0-.12-.025h-2.03a.32.32 0 0 0-.288.198.3.3 0 0 0-.022.12V46.06c0 .176.14.319.31.319h2.03c.17 0 .31-.143.31-.319v-4.88h5.348v4.88c0 .176.14.319.31.319h2.03c.171 0 .31-.143.31-.319V33.923a.31.31 0 0 0-.19-.293.3.3 0 0 0-.12-.025h-2.03a.31.31 0 0 0-.306.318m-120.75 1.302c-1.408-2.61-4.163-4.235-7.159-4.225H37.778a.78.78 0 0 0-.716.478.76.76 0 0 0 .168.836l4.938 4.9c.436.434 1.03.677 1.648.677h15.98c1.14-.012 2.07.89 2.082 2.013s-.9 2.043-2.04 2.054H48.821a.78.78 0 0 0-.718.476.76.76 0 0 0 .167.838l4.941 4.904a2.34 2.34 0 0 0 1.648.676h4.983c6.483 0 11.385-6.84 7.763-13.63"/></svg>