<svg xmlns="http://www.w3.org/2000/svg" width="228" height="80" fill="none" viewBox="0 0 228 80"><path fill="#202020" d="M79.35 28.122c-5.142 0-9.35 4.207-9.35 9.35s4.207 9.35 9.35 9.35 9.35-4.182 9.35-9.35a9.344 9.344 0 0 0-9.35-9.35m0 15.35c-3.195 0-5.766-2.624-5.766-6s2.571-6 5.766-6 5.766 2.623 5.766 6-2.571 6-5.766 6m18.804-10.156c-1.689 0-3.325.675-4.182 1.818v-1.558h-3.376v18.18h3.376v-6.57c.857 1.064 2.442 1.636 4.182 1.636 3.636 0 6.493-2.857 6.493-6.753s-2.857-6.753-6.493-6.753m-.572 10.57c-1.922 0-3.636-1.506-3.636-3.817s1.714-3.818 3.636-3.818 3.636 1.506 3.636 3.818c0 2.311-1.714 3.818-3.636 3.818m15.013-10.571c-3.688 0-6.597 2.883-6.597 6.753s2.545 6.753 6.701 6.753c3.402 0 5.584-2.052 6.259-4.364h-3.299c-.415.961-1.584 1.637-2.986 1.637-1.74 0-3.065-1.221-3.377-2.961h9.818v-1.325c0-3.532-2.468-6.493-6.519-6.493m-3.273 5.428c.364-1.636 1.714-2.7 3.351-2.7 1.74 0 3.064 1.142 3.22 2.7zm18.779-5.428c-1.507 0-3.091.676-3.818 1.792v-1.532h-3.377v12.986h3.377v-6.986c0-2.026 1.09-3.35 2.857-3.35 1.636 0 2.519 1.246 2.519 2.986v7.35h3.376v-7.895c0-3.22-1.974-5.35-4.934-5.35m13.581-4.935-7.35 18.18h3.61l1.559-3.973h8.363l1.558 3.974h3.662l-7.298-18.18zm-1.013 11.194 3.013-7.61 2.987 7.61zm17.22-11.194h-3.428v18.18h3.428z"/></svg>