<svg xmlns="http://www.w3.org/2000/svg" width="228" height="80" fill="none" viewBox="0 0 228 80"><path fill="#202020" d="M138.881 47.159q-1.276 0-2.291-.48a4.24 4.24 0 0 1-1.589-1.286q-.573-.831-.573-1.916 0-1.413.938-2.296t2.682-1.21l3.047-.605q.91-.177 1.249-.555t.339-1.11l.312 2.95-4.374.91q-.885.174-1.38.63-.47.454-.469 1.26 0 .832.651 1.337.677.504 1.822.505.939 0 1.719-.404a3.04 3.04 0 0 0 1.25-1.11 3 3 0 0 0 .469-1.665v-4.413q0-.908-.678-1.412-.65-.53-1.796-.53-1.458 0-2.239.706t-.912 1.993l-2.291-.303q.13-1.337.833-2.295.703-.983 1.875-1.514 1.172-.529 2.786-.529 2.29 0 3.515 1.135Q145 36.087 145 37.878v8.902h-2.265v-1.639q-.339.832-1.38 1.438-1.017.58-2.474.58m-22.914-.378V34.196h2.265v1.412q.261-.732 1.146-1.261.885-.53 2.056-.53 1.147 0 2.11.48.963.479 1.25 1.437.338-.883 1.25-1.387a4.16 4.16 0 0 1 2.082-.53q1.98 0 3.021 1.11 1.042 1.11 1.042 3.228v8.626h-2.318v-8.323q0-1.26-.572-1.891-.549-.657-1.615-.657-1.172 0-1.823.808-.625.782-.625 2.294v7.769h-2.317v-8.323q0-1.26-.573-1.891-.546-.657-1.614-.657-1.172 0-1.823.808-.625.782-.625 2.294v7.769zm-8.861 4.539q-2.422 0-3.932-1.084t-1.927-3.027l2.265-.48q.287 1.237 1.224 1.918.938.706 2.37.706 1.718 0 2.577-.858.885-.831.885-2.496v-1.993q-.39.932-1.458 1.514-1.041.58-2.343.58-1.72 0-3.02-.757a5.4 5.4 0 0 1-2.031-2.169q-.729-1.387-.729-3.203 0-1.84.728-3.228.73-1.388 2.005-2.144 1.302-.782 3.047-.782 1.302 0 2.37.58 1.092.555 1.483 1.387v-1.588h2.266v11.802q0 1.665-.677 2.85-.677 1.21-1.979 1.841-1.275.63-3.124.631m-.053-7.213q1.666 0 2.656-1.135 1.016-1.135 1.016-3.002 0-1.89-1.016-3.026-1.015-1.135-2.656-1.135-1.665 0-2.682 1.135-.989 1.136-.989 3.026 0 1.867 1.015 3.002 1.016 1.134 2.656 1.135M96.31 46.78V34.196h2.318V46.78zm-.026-14.2V29h2.37v3.581zM83 46.781V29h2.447v17.78zm.495-7.516V37.12h9.972v2.144zm0-8.096V29h10.936v2.169z"/></svg>