<svg xmlns="http://www.w3.org/2000/svg" width="228" height="80" fill="none" viewBox="0 0 228 80"><path fill="#202020" d="M58.126 46.93h12.409v-3.644h-7.847v-3.393h6.318v-3.739h-6.318v-3.203h7.847v-3.655h-12.41zm27.875-13.74h-5.47l-1.815 3.31-1.911-3.31h-5.626l4.587 6.643-4.885 7.097h5.47l2.174-3.691 2.161 3.69H86.3l-4.885-7.096zm8.6-.334c-1.505 0-2.819.607-3.798 1.786v-1.453h-4.192v19.587h4.479v-6.87c.812.833 2.042 1.357 3.487 1.357 3.655 0 6.199-2.81 6.199-7.203s-2.4-7.204-6.175-7.204m-.98 10.764c-1.671 0-2.675-1.31-2.675-3.56s1.004-3.56 2.676-3.56 2.675 1.285 2.675 3.56c.012 2.286-.991 3.56-2.675 3.56m15.024.166c-1.362 0-2.401-.785-2.652-2.786h9.519v-.583c0-4.287-2.4-7.573-7.058-7.573-3.297 0-7.095 1.786-7.095 7.204 0 4.393 2.843 7.203 7.262 7.203 2.628 0 5.888-.94 6.927-5.012h-4.526c-.203.773-.789 1.547-2.377 1.547m-.191-7.656c1.29 0 2.15.727 2.293 2.31h-4.658c.322-1.75 1.302-2.31 2.365-2.31m15.765-3.274c-1.541 0-2.902.667-3.798 1.953v-1.62h-4.192v13.753h4.479v-7.656c0-1.834.943-2.668 2.174-2.668 1.313 0 2.09.56 2.09 2.644v7.68h4.466v-8.014c0-4.346-1.755-6.072-5.219-6.072m21.523-5.918c-1.362 0-2.341 1-2.341 2.274s.979 2.31 2.341 2.31c1.361 0 2.365-1.024 2.365-2.31 0-1.274-.968-2.274-2.365-2.274m2.269 6.275h-4.455V46.93h4.455zm-10.331 5.156-1.111-.25c-1.171-.25-1.589-.762-1.589-1.298 0-.762.645-1.25 1.673-1.25 1.313 0 2.006.428 2.006 1.69h3.846c-.084-2.893-1.78-4.596-6.056-4.596-3.69 0-5.888 1.37-5.888 4.43 0 2.417 1.637 3.512 5.375 4.358l1.111.25c1.17.25 1.588.798 1.588 1.333 0 .762-.669 1.096-1.839 1.096-1.541 0-2.234-.56-2.425-1.822h-4.347c.251 3.31 2.568 4.965 6.617 4.965s6.425-1.488 6.425-4.548c-.012-2.43-1.636-3.513-5.386-4.358m27.769-5.156-2.509 8.395-2.448-8.395h-5.781v-.428c0-1.12.836-2.25 2.138-2.25h.633v-3.632h-.919c-3.822.083-6.33 2.762-6.33 6.132v.178h-1.672v4.048h1.672v9.669h4.455v-9.67h2.508l3.344 9.312-.562 1.44c-.418 1.06-.895 1.358-1.815 1.358-.478 0-.943 0-1.612-.19l-.275 3.643c.669.19 1.505.274 2.568.274 2.675 0 4.073-1.143 5.41-4.668l5.733-15.217z"/></svg>