<svg xmlns="http://www.w3.org/2000/svg" width="228" height="80" fill="none" viewBox="0 0 228 80"><path fill="#202020" d="m93.878 34.697-2.442 6.952h-.101l-2.436-6.952h-4.273l4.17 11.191h4.85l4.172-11.191zm23.18-.305c-1.685 0-3.019.752-3.618 1.984v-1.679h-4.069v11.197h4.069v-5.5c0-1.684.554-2.786 1.933-2.786 1.232 0 1.662.803 1.662 2.334v5.946h4.07v-7.025c0-2.335-.984-4.471-4.047-4.471m31.03 2.289v-1.984h-4.069v11.197h4.069v-5.12c0-1.883.933-2.697 2.436-2.697.78 0 1.634.153 2.188.48v-3.843c-.277-.226-.882-.43-1.56-.43-1.481 0-2.663 1.142-3.064 2.397m5.302-1.984h4.069v11.197h-4.069zm2.035-.786a2.3 2.3 0 1 0 0-4.6 2.3 2.3 0 0 0 0 4.6m8.252 7.682V37.5h2.917v-2.809h-2.917v-3.086h-2.442a3.087 3.087 0 0 1-3.091 3.086v2.81h1.509v5.267c0 2.64 1.78 3.414 3.668 3.414 1.532 0 2.51-.379 3.369-1.006v-2.634c-.679.277-1.233.379-1.73.379-.831.005-1.283-.373-1.283-1.328m-35.433 1.333h-.012c-.825 0-1.271-.378-1.271-1.328v-4.092h2.916v-2.815h-2.916v-3.086h-2.442a3.09 3.09 0 0 1-3.092 3.086h-.006v2.81h1.51v5.267c0 2.64 1.78 3.414 3.668 3.414 1.532 0 2.509-.379 3.368-1.006v-2.634c-.672.277-1.226.384-1.723.384m-48.502-8.529c-3.487 0-6.098 2.538-6.098 6.076 0 3.567 2.56 5.726 6.15 5.726 3.26 0 5.21-1.701 5.674-4.296h-3.34c-.38.876-1.08 1.255-2.182 1.255-1.232 0-2.233-.65-2.335-2.035h7.857v-1.13c-.006-3.035-1.99-5.596-5.726-5.596m-2.085 4.77c.152-1.056.729-1.859 2.034-1.859 1.204 0 1.86.854 1.91 1.86zm25.27-4.77c-3.487 0-6.098 2.538-6.098 6.076 0 3.567 2.56 5.726 6.149 5.726 3.262 0 5.212-1.701 5.675-4.296h-3.34c-.379.876-1.08 1.255-2.182 1.255-1.232 0-2.233-.65-2.334-2.035h7.856v-1.13c0-3.035-1.984-5.596-5.726-5.596m-2.085 4.77c.152-1.056.729-1.859 2.035-1.859 1.204 0 1.859.854 1.91 1.86zm78.158.826c0-3.035-1.984-5.596-5.726-5.596-3.487 0-6.098 2.538-6.098 6.076 0 3.567 2.56 5.726 6.149 5.726 3.262 0 5.212-1.701 5.675-4.296h-3.34c-.379.876-1.08 1.255-2.182 1.255-1.232 0-2.233-.65-2.334-2.035H179zm-7.806-.825c.153-1.057.73-1.86 2.035-1.86 1.204 0 1.86.854 1.911 1.86zm-32.777-4.793c-1.882 0-3.142.904-3.696 2.238v-6.557h-4.07v15.832h3.143l.701-1.933c.627 1.357 2.035 2.238 3.843 2.238 3.369 0 5.053-2.588 5.053-5.906 0-3.301-1.684-5.912-4.974-5.912m-1.43 8.67c-1.384 0-2.26-1.057-2.26-2.69v-.147c0-1.611.881-2.663 2.26-2.663 1.583 0 2.312 1.131 2.312 2.742 0 1.628-.729 2.758-2.312 2.758m-70.872 1.232-7.5-5.844c-.125-.096.005-.288.14-.21l2.928 1.64a2.847 2.847 0 0 0 3.81-.978 2.836 2.836 0 0 0-.99-3.956l-4.295-2.482c-.135-.079-.034-.288.113-.226l1.973.792c.006 0 .05.017.068.022a2 2 0 0 0 .667.113c1.068 0 1.95-.848 2.023-1.854.096-1.311-.899-2.221-2.091-2.221h-9.123c-1.17 0-2.159.955-2.142 2.125.006.622.288 1.176.724 1.555.327.288 1.435 1.17 1.96 1.593.097.074.04.227-.078.227h-1.826a3.495 3.495 0 0 0-2.436 5.98l10.575 10.05a4.192 4.192 0 0 0 7.048-3.07 4.21 4.21 0 0 0-1.548-3.256"/></svg>